<svg width="44" height="50" viewBox="0 0 44 50" fill="none" xmlns="http://www.w3.org/2000/svg">
<path d="M15.75 0L14.2811 6.60807C6.20367 8.25313 0.125 15.395 0.125 23.9583V50H9.5V46.875C9.5 45.724 10.4333 44.7917 11.5833 44.7917H13.6667V50H16.7917V44.7917H20.9583V50H24.0833V44.7917H28.25V50H31.375V44.7917H33.4583C34.6083 44.7917 35.5417 43.8594 35.5417 42.7083V40.1815C40.349 38.82 43.875 34.4104 43.875 29.1667C43.875 23.5354 39.8094 18.8631 34.4552 17.8996C32.373 12.1905 27.4472 7.85973 21.3876 6.62028L19.9167 0H15.75ZM17.8333 21.875C20.4906 21.875 22.8094 23.3013 24.0833 25.4252C25.3573 23.3013 27.676 21.875 30.3333 21.875C34.3604 21.875 37.625 25.1396 37.625 29.1667C37.625 33.1937 34.3604 36.4583 30.3333 36.4583C27.676 36.4583 25.3573 35.0321 24.0833 32.9081C22.8094 35.0321 20.4906 36.4583 17.8333 36.4583C13.8062 36.4583 10.5417 33.1937 10.5417 29.1667C10.5417 25.1396 13.8062 21.875 17.8333 21.875ZM15.75 26.0417C14.024 26.0417 12.625 27.4406 12.625 29.1667C12.625 30.8927 14.024 32.2917 15.75 32.2917C17.476 32.2917 18.875 30.8927 18.875 29.1667C18.875 27.4406 17.476 26.0417 15.75 26.0417ZM28.25 26.0417C26.524 26.0417 25.125 27.4406 25.125 29.1667C25.125 30.8927 26.524 32.2917 28.25 32.2917C29.976 32.2917 31.375 30.8927 31.375 29.1667C31.375 27.4406 29.976 26.0417 28.25 26.0417Z" fill="#BB8E34"/>
</svg>
