<svg width="96" height="96" viewBox="0 0 96 96" fill="none" xmlns="http://www.w3.org/2000/svg">
<rect width="96" height="96" rx="48" fill="white"/>
<g clip-path="url(#clip0_420_1772)">
<path d="M31.5938 24C31.4073 24 31.2284 24.0741 31.0966 24.2059C30.9647 24.3378 30.8906 24.5166 30.8906 24.7031V28.6875H65.1094V24.7031C65.1094 24.5166 65.0353 24.3378 64.9034 24.2059C64.7716 24.0741 64.5927 24 64.4062 24H31.5938ZM56.9062 25.6406H57.8438C58.0302 25.6406 58.2091 25.7147 58.3409 25.8466C58.4728 25.9784 58.5469 26.1573 58.5469 26.3438C58.5469 26.5302 58.4728 26.7091 58.3409 26.8409C58.2091 26.9728 58.0302 27.0469 57.8438 27.0469H56.9062C56.7198 27.0469 56.5409 26.9728 56.4091 26.8409C56.2772 26.7091 56.2031 26.5302 56.2031 26.3438C56.2031 26.1573 56.2772 25.9784 56.4091 25.8466C56.5409 25.7147 56.7198 25.6406 56.9062 25.6406ZM60.6562 25.6406H61.5938C61.7802 25.6406 61.9591 25.7147 62.0909 25.8466C62.2228 25.9784 62.2969 26.1573 62.2969 26.3438C62.2969 26.5302 62.2228 26.7091 62.0909 26.8409C61.9591 26.9728 61.7802 27.0469 61.5938 27.0469H60.6562C60.4698 27.0469 60.2909 26.9728 60.1591 26.8409C60.0272 26.7091 59.9531 26.5302 59.9531 26.3438C59.9531 26.1573 60.0272 25.9784 60.1591 25.8466C60.2909 25.7147 60.4698 25.6406 60.6562 25.6406ZM30.8906 30.0938V31.0312H47.6719C48.604 31.0322 49.4976 31.403 50.1567 32.062C50.8158 32.7211 51.1865 33.6148 51.1875 34.5469V50.4844C51.1865 51.4165 50.8158 52.3101 50.1567 52.9692C49.4976 53.6283 48.604 53.999 47.6719 54H30.8906V71.2969C30.8906 71.4834 30.9647 71.6622 31.0966 71.7941C31.2284 71.9259 31.4073 72 31.5938 72H64.4062C64.5927 72 64.7716 71.9259 64.9034 71.7941C65.0353 71.6622 65.1094 71.4834 65.1094 71.2969V69.7377C63.6583 69.9973 62.168 69.9356 60.7434 69.5569C59.3187 69.1782 57.9945 68.4918 56.8638 67.546C55.7331 66.6002 54.8236 65.418 54.1992 64.0827C53.5749 62.7473 53.2508 61.2914 53.25 59.8173C53.2508 58.3432 53.5748 56.8871 54.1992 55.5518C54.8235 54.2164 55.7331 53.0342 56.8637 52.0884C57.9944 51.1426 59.3187 50.4561 60.7433 50.0774C62.168 49.6988 63.6583 49.637 65.1094 49.8966V30.0938H30.8906ZM26.1094 32.4375C25.5501 32.438 25.0138 32.6604 24.6184 33.0559C24.2229 33.4513 24.0005 33.9876 24 34.5469V50.4844C24.0005 51.0437 24.2229 51.5799 24.6184 51.9754C25.0138 52.3709 25.5501 52.5933 26.1094 52.5938H47.6719C48.2312 52.5933 48.7674 52.3709 49.1629 51.9754C49.5584 51.5799 49.7808 51.0437 49.7812 50.4844V34.5469C49.7808 33.9876 49.5584 33.4513 49.1629 33.0559C48.7674 32.6604 48.2312 32.438 47.6719 32.4375H26.1094ZM42.0469 35.25H44.8594C45.0459 35.25 45.2247 35.3241 45.3566 35.4559C45.4884 35.5878 45.5625 35.7666 45.5625 35.9531V48.375H46.2656C46.4521 48.375 46.6309 48.4491 46.7628 48.5809C46.8947 48.7128 46.9688 48.8916 46.9688 49.0781C46.9688 49.2646 46.8947 49.4434 46.7628 49.5753C46.6309 49.7072 46.4521 49.7812 46.2656 49.7812H27.5156C27.3291 49.7812 27.1503 49.7072 27.0184 49.5753C26.8866 49.4434 26.8125 49.2646 26.8125 49.0781C26.8125 48.8916 26.8866 48.7128 27.0184 48.5809C27.1503 48.4491 27.3291 48.375 27.5156 48.375H28.2188V43.4531C28.2188 43.2666 28.2928 43.0878 28.4247 42.9559C28.5566 42.8241 28.7354 42.75 28.9219 42.75H31.7344C31.9209 42.75 32.0997 42.8241 32.2316 42.9559C32.3634 43.0878 32.4375 43.2666 32.4375 43.4531V48.375H34.7812V39.7031C34.7812 39.5166 34.8553 39.3378 34.9872 39.2059C35.1191 39.0741 35.2979 39 35.4844 39H38.2969C38.4834 39 38.6622 39.0741 38.7941 39.2059C38.9259 39.3378 39 39.5166 39 39.7031V48.375H41.3438V35.9531C41.3438 35.7666 41.4178 35.5878 41.5497 35.4559C41.6816 35.3241 41.8604 35.25 42.0469 35.25ZM52.8281 36.1875H60.6562C60.8427 36.1875 61.0216 36.2616 61.1534 36.3934C61.2853 36.5253 61.3594 36.7041 61.3594 36.8906V48.1406C61.3594 48.3271 61.2853 48.5059 61.1534 48.6378C61.0216 48.7697 60.8427 48.8438 60.6562 48.8438H52.8281C52.6416 48.8438 52.4628 48.7697 52.3309 48.6378C52.1991 48.5059 52.125 48.3271 52.125 48.1406V36.8906C52.125 36.7041 52.1991 36.5253 52.3309 36.3934C52.4628 36.2616 52.6416 36.1875 52.8281 36.1875ZM42.75 36.6562V48.375H44.1562V36.6562H42.75ZM53.5312 37.5938V47.4375H59.9531V37.5938H53.5312ZM55.3564 38.5316C55.5393 38.537 55.7128 38.6133 55.8403 38.7445C55.9677 38.8757 56.039 39.0515 56.0391 39.2344V39.7031C56.0391 39.8896 55.965 40.0684 55.8331 40.2003C55.7013 40.3322 55.5224 40.4062 55.3359 40.4062C55.1495 40.4062 54.9706 40.3322 54.8388 40.2003C54.7069 40.0684 54.6328 39.8896 54.6328 39.7031V39.2344C54.6328 39.1403 54.6517 39.0472 54.6883 38.9606C54.725 38.874 54.7786 38.7956 54.8461 38.73C54.9136 38.6645 54.9935 38.6132 55.0812 38.5791C55.1688 38.545 55.2624 38.5289 55.3564 38.5316ZM58.1689 38.5316C58.3518 38.537 58.5253 38.6133 58.6528 38.7445C58.7802 38.8757 58.8515 39.0515 58.8516 39.2344V45.7969C58.8516 45.9834 58.7775 46.1622 58.6456 46.2941C58.5138 46.4259 58.3349 46.5 58.1484 46.5C57.962 46.5 57.7831 46.4259 57.6513 46.2941C57.5194 46.1622 57.4453 45.9834 57.4453 45.7969V39.2344C57.4453 39.1403 57.4642 39.0472 57.5008 38.9606C57.5375 38.874 57.5911 38.7956 57.6586 38.73C57.7261 38.6645 57.806 38.6132 57.8937 38.5791C57.9813 38.545 58.0749 38.5289 58.1689 38.5316ZM36.1875 40.4062V48.375H37.5938V40.4062H36.1875ZM55.3564 41.3441C55.5393 41.3495 55.7128 41.4258 55.8403 41.557C55.9677 41.6882 56.039 41.864 56.0391 42.0469V45.7969C56.0391 45.9834 55.965 46.1622 55.8331 46.2941C55.7013 46.4259 55.5224 46.5 55.3359 46.5C55.1495 46.5 54.9706 46.4259 54.8388 46.2941C54.7069 46.1622 54.6328 45.9834 54.6328 45.7969V42.0469C54.6328 41.9528 54.6517 41.8597 54.6883 41.7731C54.725 41.6865 54.7786 41.6081 54.8461 41.5425C54.9136 41.477 54.9935 41.4257 55.0812 41.3916C55.1688 41.3575 55.2624 41.3414 55.3564 41.3441ZM29.625 44.1562V48.375H31.0312V44.1562H29.625ZM63.3281 51.1454C61.613 51.1454 59.9364 51.654 58.5103 52.6069C57.0842 53.5597 55.9727 54.9141 55.3164 56.4987C54.66 58.0833 54.4883 59.8269 54.8229 61.5091C55.1575 63.1912 55.9834 64.7364 57.1962 65.9492C58.409 67.162 59.9541 67.9879 61.6363 68.3225C63.3185 68.6571 65.0621 68.4854 66.6467 67.829C68.2313 67.1727 69.5856 66.0612 70.5385 64.6351C71.4914 63.209 72 61.5324 72 59.8173C71.9973 57.5182 71.0828 55.314 69.4571 53.6883C67.8314 52.0626 65.6272 51.1481 63.3281 51.1454ZM35.3438 54.9375H49.0781C49.2646 54.9375 49.4434 55.0116 49.5753 55.1434C49.7072 55.2753 49.7812 55.4541 49.7812 55.6406V67.786C49.7812 67.9725 49.7072 68.1513 49.5753 68.2832C49.4434 68.4151 49.2646 68.4891 49.0781 68.4891H35.3438C35.1573 68.4891 34.9784 68.4151 34.8466 68.2832C34.7147 68.1513 34.6406 67.9725 34.6406 67.786V55.6406C34.6406 55.4541 34.7147 55.2753 34.8466 55.1434C34.9784 55.0116 35.1573 54.9375 35.3438 54.9375ZM64.0534 56.0771C64.1644 56.0717 64.2751 56.0926 64.3765 56.1381C64.4779 56.1837 64.567 56.2527 64.6365 56.3393C64.7061 56.426 64.7541 56.5279 64.7767 56.6368C64.7992 56.7456 64.7956 56.8582 64.7662 56.9654L64.7701 56.9634L63.2578 63.0123C63.2198 63.1643 63.1321 63.2992 63.0086 63.3957C62.8851 63.4921 62.733 63.5446 62.5763 63.5447C62.5188 63.5447 62.4615 63.5378 62.4056 63.524C62.316 63.5017 62.2316 63.4619 62.1573 63.4069C62.0831 63.3519 62.0204 63.2828 61.9728 63.2036C61.9253 63.1244 61.8938 63.0366 61.8802 62.9452C61.8667 62.8538 61.8712 62.7606 61.8937 62.671L63.4021 56.625C63.4359 56.475 63.5178 56.3403 63.6354 56.2413C63.7531 56.1424 63.8999 56.0847 64.0534 56.0771ZM36.0469 56.3438V67.0829H48.375V56.3438H36.0469ZM60.752 57.2983C60.8965 57.2967 61.0379 57.3396 61.1571 57.4212C61.2764 57.5027 61.3677 57.619 61.4186 57.7542C61.4696 57.8893 61.4777 58.0369 61.442 58.1769C61.4062 58.3168 61.3283 58.4424 61.2188 58.5366L59.7188 59.8173L61.2188 61.0979C61.2903 61.1575 61.3494 61.2308 61.3924 61.3134C61.4355 61.3961 61.4617 61.4864 61.4695 61.5793C61.4773 61.6721 61.4666 61.7656 61.4379 61.8542C61.4093 61.9429 61.3633 62.025 61.3027 62.0958C61.2421 62.1665 61.168 62.2245 61.0848 62.2664C61.0015 62.3082 60.9108 62.3331 60.8179 62.3396C60.7249 62.3461 60.6316 62.3341 60.5433 62.3042C60.4551 62.2743 60.3737 62.2272 60.3038 62.1656L58.1869 60.3516C58.1099 60.2856 58.048 60.2037 58.0056 60.1115C57.9632 60.0193 57.9413 59.9191 57.9413 59.8176C57.9413 59.7162 57.9632 59.6159 58.0056 59.5238C58.048 59.4316 58.1099 59.3497 58.1869 59.2837L60.2999 57.4688C60.4258 57.3604 60.5859 57.3 60.752 57.2983ZM65.8749 57.2986C66.051 57.2931 66.2228 57.3538 66.3563 57.4688L68.4732 59.2837C68.5502 59.3497 68.6121 59.4316 68.6545 59.5238C68.6969 59.6159 68.7188 59.7162 68.7188 59.8176C68.7188 59.9191 68.6969 60.0193 68.6545 60.1115C68.6121 60.2037 68.5502 60.2856 68.4732 60.3516H68.4769L66.3563 62.1656C66.2145 62.2856 66.031 62.3448 65.8458 62.3301C65.6605 62.3155 65.4886 62.2283 65.3674 62.0874C65.2462 61.9466 65.1856 61.7636 65.1987 61.5782C65.2118 61.3929 65.2977 61.2202 65.4375 61.0979L66.9375 59.8173L65.4375 58.5366C65.3299 58.4441 65.2527 58.3211 65.2162 58.184C65.1797 58.0468 65.1854 57.9018 65.2327 57.768C65.28 57.6341 65.3666 57.5177 65.4812 57.434C65.5958 57.3502 65.7331 57.303 65.8749 57.2986ZM37.9922 57.7293H38.4609C38.6474 57.7293 38.8263 57.8034 38.9581 57.9352C39.09 58.0671 39.1641 58.246 39.1641 58.4324C39.1641 58.6189 39.09 58.7978 38.9581 58.9296C38.8263 59.0615 38.6474 59.1356 38.4609 59.1356H37.9922C37.8057 59.1356 37.6269 59.0615 37.495 58.9296C37.3631 58.7978 37.2891 58.6189 37.2891 58.4324C37.2891 58.246 37.3631 58.0671 37.495 57.9352C37.6269 57.8034 37.8057 57.7293 37.9922 57.7293ZM40.8047 57.7293H46.4297C46.6162 57.7293 46.795 57.8034 46.9269 57.9352C47.0587 58.0671 47.1328 58.246 47.1328 58.4324C47.1328 58.6189 47.0587 58.7978 46.9269 58.9296C46.795 59.0615 46.6162 59.1356 46.4297 59.1356H40.8047C40.6182 59.1356 40.4394 59.0615 40.3075 58.9296C40.1756 58.7978 40.1016 58.6189 40.1016 58.4324C40.1016 58.246 40.1756 58.0671 40.3075 57.9352C40.4394 57.8034 40.6182 57.7293 40.8047 57.7293ZM37.9922 61.0106H46.4297C46.6162 61.0106 46.795 61.0846 46.9269 61.2165C47.0587 61.3484 47.1328 61.5272 47.1328 61.7137C47.1328 61.9002 47.0587 62.079 46.9269 62.2109C46.795 62.3427 46.6162 62.4168 46.4297 62.4168H37.9922C37.8057 62.4168 37.6269 62.3427 37.495 62.2109C37.3631 62.079 37.2891 61.9002 37.2891 61.7137C37.2891 61.5272 37.3631 61.3484 37.495 61.2165C37.6269 61.0846 37.8057 61.0106 37.9922 61.0106ZM37.9922 64.2918H46.4297C46.6162 64.2918 46.795 64.3659 46.9269 64.4977C47.0587 64.6296 47.1328 64.8085 47.1328 64.9949C47.1328 65.1814 47.0587 65.3603 46.9269 65.4921C46.795 65.624 46.6162 65.6981 46.4297 65.6981H37.9922C37.8057 65.6981 37.6269 65.624 37.495 65.4921C37.3631 65.3603 37.2891 65.1814 37.2891 64.9949C37.2891 64.8085 37.3631 64.6296 37.495 64.4977C37.6269 64.3659 37.8057 64.2918 37.9922 64.2918Z" fill="#BB8E34"/>
</g>
<defs>
<clipPath id="clip0_420_1772">
<rect width="48" height="48" fill="white" transform="translate(24 24)"/>
</clipPath>
</defs>
</svg>
