<svg width="188" height="48" viewBox="0 0 188 48" fill="none" xmlns="http://www.w3.org/2000/svg">
<path d="M0.196655 31.3846V13.2923H8.41573C10.38 13.2923 12.1117 13.6714 13.6108 14.4296C15.1099 15.1705 16.2816 16.2129 17.1259 17.5569C17.9701 18.9009 18.3923 20.4947 18.3923 22.3385C18.3923 24.1649 17.9701 25.7589 17.1259 27.12C16.2816 28.464 15.1099 29.515 13.6108 30.2733C12.1117 31.0141 10.38 31.3846 8.41573 31.3846H0.196655ZM4.38373 27.9471H8.20896C9.41505 27.9471 10.4576 27.7232 11.3363 27.2751C12.2323 26.8099 12.9216 26.155 13.404 25.3108C13.9038 24.4665 14.1536 23.4757 14.1536 22.3385C14.1536 21.1841 13.9038 20.1933 13.404 19.3662C12.9216 18.5219 12.2323 17.8757 11.3363 17.4277C10.4576 16.9625 9.41505 16.7299 8.20896 16.7299H4.38373V27.9471ZM23.3334 20.5809H32.0435V23.8376H23.3334V20.5809ZM23.6435 28.0246H33.4909V31.3846H19.4823V13.2923H33.1549V16.6523H23.6435V28.0246ZM34.7548 31.3846V13.2923H43.5942C45.8687 13.2923 47.5745 13.7231 48.7117 14.5846C49.8661 15.4462 50.4434 16.5834 50.4434 17.9963C50.4434 18.944 50.2108 19.771 49.7456 20.4776C49.2803 21.1667 48.6429 21.701 47.833 22.08C47.0231 22.459 46.0926 22.6486 45.0416 22.6486L45.5326 21.5889C46.6699 21.5889 47.6779 21.7785 48.5567 22.1576C49.4354 22.5194 50.1161 23.0622 50.5985 23.7859C51.0983 24.5096 51.348 25.397 51.348 26.448C51.348 27.9988 50.7364 29.2136 49.513 30.0923C48.2895 30.9539 46.489 31.3846 44.1111 31.3846H34.7548ZM38.916 28.2314H43.801C44.8865 28.2314 45.7049 28.0592 46.2563 27.7145C46.825 27.3526 47.1093 26.784 47.1093 26.0086C47.1093 25.2504 46.825 24.6905 46.2563 24.3286C45.7049 23.9496 44.8865 23.76 43.801 23.76H38.6059V20.7102H43.0773C44.0939 20.7102 44.8693 20.5379 45.4034 20.1933C45.9549 19.8314 46.2305 19.2886 46.2305 18.5649C46.2305 17.8585 45.9549 17.333 45.4034 16.9883C44.8693 16.6265 44.0939 16.4456 43.0773 16.4456H38.916V28.2314ZM61.2381 31.6948C59.8079 31.6948 58.481 31.4622 57.2578 30.9969C56.0515 30.5317 55.0005 29.8769 54.1045 29.0326C53.2258 28.1884 52.5364 27.1976 52.0368 26.0603C51.5542 24.9231 51.3131 23.6825 51.3131 22.3385C51.3131 20.9945 51.5542 19.7539 52.0368 18.6166C52.5364 17.4794 53.2342 16.4886 54.1304 15.6443C55.0263 14.8 56.0773 14.1453 57.2836 13.68C58.4897 13.2148 59.7992 12.9822 61.2122 12.9822C62.6423 12.9822 63.9519 13.2148 65.1408 13.68C66.3469 14.1453 67.3895 14.8 68.2682 15.6443C69.1642 16.4886 69.862 17.4794 70.3618 18.6166C70.8613 19.7367 71.1113 20.9773 71.1113 22.3385C71.1113 23.6825 70.8613 24.9318 70.3618 26.0862C69.862 27.2234 69.1642 28.2142 68.2682 29.0585C67.3895 29.8856 66.3469 30.5317 65.1408 30.9969C63.9519 31.4622 62.6509 31.6948 61.2381 31.6948ZM61.2122 28.128C62.0219 28.128 62.763 27.9901 63.435 27.7145C64.1242 27.4389 64.7273 27.0425 65.2442 26.5256C65.7611 26.0086 66.1573 25.397 66.4331 24.6905C66.7259 23.984 66.8725 23.2001 66.8725 22.3385C66.8725 21.4769 66.7259 20.693 66.4331 19.9865C66.1573 19.28 65.7611 18.6683 65.2442 18.1514C64.7445 17.6345 64.15 17.2382 63.4608 16.9625C62.7715 16.6868 62.0219 16.5489 61.2122 16.5489C60.4023 16.5489 59.6528 16.6868 58.9636 16.9625C58.2916 17.2382 57.6971 17.6345 57.1802 18.1514C56.6633 18.6683 56.2582 19.28 55.9654 19.9865C55.6896 20.693 55.5519 21.4769 55.5519 22.3385C55.5519 23.1827 55.6896 23.9668 55.9654 24.6905C56.2582 25.397 56.6546 26.0086 57.1544 26.5256C57.6713 27.0425 58.2743 27.4389 58.9636 27.7145C59.6528 27.9901 60.4023 28.128 61.2122 28.128ZM72.1904 31.3846V13.2923H80.0218C81.6414 13.2923 83.0371 13.5594 84.2088 14.0936C85.3804 14.6105 86.285 15.36 86.9227 16.3422C87.5602 17.3243 87.879 18.4961 87.879 19.8573C87.879 21.2013 87.5602 22.3643 86.9227 23.3465C86.285 24.3115 85.3804 25.0523 84.2088 25.5693C83.0371 26.0862 81.6414 26.3446 80.0218 26.3446H74.5165L76.3775 24.5096V31.3846H72.1904ZM83.6919 31.3846L79.1688 24.8197H83.6402L88.215 31.3846H83.6919ZM76.3775 24.9748L74.5165 23.0105H79.7891C81.0815 23.0105 82.0463 22.7349 82.6839 22.1834C83.3214 21.6148 83.6402 20.8394 83.6402 19.8573C83.6402 18.8579 83.3214 18.0825 82.6839 17.5311C82.0463 16.9797 81.0815 16.704 79.7891 16.704H74.5165L76.3775 14.7139V24.9748ZM86.7508 31.3846L94.8148 13.2923H98.9502L107.04 31.3846H102.646L96.0296 15.4117H97.6837L91.0413 31.3846H86.7508ZM90.7828 27.5077L91.8942 24.3286H101.199L102.336 27.5077H90.7828ZM119.255 13.2923H123.443V31.3846H119.255V13.2923ZM111.036 31.3846H106.849V13.2923H111.036V31.3846ZM119.566 23.9668H110.726V20.4259H119.566V23.9668Z" fill="url(#paint0_radial_28_343)"/>
<path d="M131.898 31.3846V14.9464H125.539V13.2923H140.168V14.9464H133.81V31.3846H131.898ZM142.604 21.3821H152.167V23.0104H142.604V21.3821ZM142.81 29.7304H153.692V31.3846H140.898V13.2923H153.304V14.9464H142.81V29.7304ZM163.668 31.5397C162.307 31.5397 161.049 31.3157 159.895 30.8677C158.74 30.4024 157.741 29.7563 156.896 28.9292C156.052 28.1021 155.389 27.1287 154.906 26.0086C154.441 24.8885 154.208 23.6653 154.208 22.3384C154.208 21.0116 154.441 19.7883 154.906 18.6683C155.389 17.5483 156.052 16.5747 156.896 15.7477C157.758 14.9206 158.766 14.2831 159.92 13.8351C161.075 13.3698 162.333 13.1372 163.694 13.1372C165.003 13.1372 166.235 13.3612 167.39 13.8092C168.544 14.24 169.518 14.8947 170.311 15.7735L169.096 16.9883C168.355 16.2301 167.536 15.6874 166.64 15.36C165.744 15.0154 164.779 14.8431 163.746 14.8431C162.66 14.8431 161.652 15.0326 160.722 15.4117C159.791 15.7735 158.981 16.2991 158.292 16.9883C157.603 17.6603 157.06 18.4529 156.664 19.3661C156.285 20.2621 156.095 21.2529 156.095 22.3384C156.095 23.424 156.285 24.4233 156.664 25.3366C157.06 26.2325 157.603 27.0253 158.292 27.7144C158.981 28.3864 159.791 28.912 160.722 29.2911C161.652 29.6529 162.66 29.8338 163.746 29.8338C164.779 29.8338 165.744 29.6616 166.64 29.3169C167.536 28.9722 168.355 28.421 169.096 27.6627L170.311 28.8775C169.518 29.7563 168.544 30.4196 167.39 30.8677C166.235 31.3157 164.995 31.5397 163.668 31.5397ZM185.294 13.2923H187.181V31.3846H185.294V13.2923ZM173.974 31.3846H172.062V13.2923H173.974V31.3846ZM185.475 23.0363H173.767V21.3563H185.475V23.0363Z" fill="#F5E3BF"/>
<defs>
<radialGradient id="paint0_radial_28_343" cx="0" cy="0" r="1" gradientUnits="userSpaceOnUse" gradientTransform="translate(106.605 17.1969) rotate(164.025) scale(135.766 72.5293)">
<stop stop-color="#E0AA3D"/>
<stop offset="0.757299" stop-color="#FAF398"/>
</radialGradient>
</defs>
</svg>
