<svg width="31" height="50" viewBox="0 0 31 50" fill="none" xmlns="http://www.w3.org/2000/svg">
<path d="M4.30301 0C2.42535 0 0.893921 1.53143 0.893921 3.40909V46.5909C0.893921 48.4686 2.42535 50 4.30301 50H27.0303C28.9079 50 30.4394 48.4686 30.4394 46.5909V3.40909C30.4394 1.53143 28.9079 0 27.0303 0H4.30301ZM3.16665 7.95455H28.1666V40.9091H3.16665V7.95455ZM12.7192 14.7372C12.6926 14.7461 12.6704 14.7594 12.6482 14.7727C12.4884 14.826 12.3597 14.9458 12.2975 15.1056C12.2354 15.2654 12.2442 15.443 12.3286 15.5895L12.9323 16.8324C11.8314 17.6536 11.1212 18.9453 11.1212 20.4545H20.2121C20.2121 18.9453 19.5019 17.6536 18.401 16.8324L19.0047 15.5895C19.1112 15.3897 19.0891 15.15 18.9514 14.9725C18.8138 14.7994 18.583 14.7195 18.3655 14.7727C18.2057 14.8216 18.077 14.937 18.0104 15.0923L17.4422 16.2642C16.8962 16.0378 16.3059 15.9091 15.6666 15.9091C15.0274 15.9091 14.4371 16.0378 13.8911 16.2642L13.3229 15.0923C13.2341 14.8748 13.0255 14.7328 12.7902 14.7372C12.768 14.7372 12.7414 14.7372 12.7192 14.7372ZM8.74193 19.2827C8.6931 19.2915 8.64428 19.3049 8.59989 19.3182C8.07165 19.438 7.69879 19.913 7.7121 20.4545V26.1364C7.70766 26.5447 7.92073 26.9265 8.27585 27.1351C8.63096 27.3393 9.06597 27.3393 9.42109 27.1351C9.7762 26.9265 9.98927 26.5447 9.98483 26.1364V20.4545C9.99815 20.1261 9.86498 19.8109 9.62972 19.589C9.39002 19.3626 9.06597 19.2516 8.74193 19.2827ZM22.3783 19.2827C22.3295 19.2915 22.2806 19.3049 22.2362 19.3182C21.708 19.438 21.3351 19.913 21.3485 20.4545V26.1364C21.344 26.5447 21.5571 26.9265 21.9122 27.1351C22.2673 27.3393 22.7023 27.3393 23.0575 27.1351C23.4126 26.9265 23.6256 26.5447 23.6212 26.1364V20.4545C23.6345 20.1261 23.5013 19.8109 23.2661 19.589C23.0264 19.3626 22.7023 19.2516 22.3783 19.2827ZM11.1212 21.5909V27.2727C11.1212 28.1694 11.5606 28.8885 12.2576 29.2614V31.8182C12.2531 32.2266 12.4662 32.6083 12.8213 32.8169C13.1764 33.0211 13.6114 33.0211 13.9665 32.8169C14.3217 32.6083 14.5347 32.2266 14.5303 31.8182V29.5455H16.803V31.8182C16.7986 32.2266 17.0116 32.6083 17.3668 32.8169C17.7219 33.0211 18.1569 33.0211 18.512 32.8169C18.8671 32.6083 19.0802 32.2266 19.0757 31.8182V29.2614C19.7726 28.8885 20.2121 28.1694 20.2121 27.2727V21.5909H11.1212ZM12.2576 44.3182H19.0757C19.7061 44.3182 20.2121 44.8242 20.2121 45.4545C20.2121 46.0849 19.7061 46.5909 19.0757 46.5909H12.2576C11.6317 46.5909 11.1212 46.0849 11.1212 45.4545C11.1212 44.8242 11.6317 44.3182 12.2576 44.3182Z" fill="#E1AB3F"/>
</svg>
