<svg width="51" height="50" viewBox="0 0 51 50" fill="none" xmlns="http://www.w3.org/2000/svg">
<path d="M5.49206 0C2.63492 0 0.333328 2.30159 0.333328 5.15873V9.12698V10.7143C0.333328 11.3889 0.849201 11.9048 1.5238 11.9048H49.1429C49.8175 11.9048 50.3333 11.3889 50.3333 10.7143V5.15873C50.3333 2.30159 48.0317 0 45.1746 0H5.49206ZM7.07936 4.7619H8.66666C9.34126 4.7619 9.85714 5.27778 9.85714 5.95238C9.85714 6.62698 9.34126 7.14286 8.66666 7.14286H7.07936C6.40476 7.14286 5.88888 6.62698 5.88888 5.95238C5.88888 5.27778 6.40476 4.7619 7.07936 4.7619ZM13.4286 4.7619H15.0159C15.6905 4.7619 16.2063 5.27778 16.2063 5.95238C16.2063 6.62698 15.6905 7.14286 15.0159 7.14286H13.4286C12.754 7.14286 12.2381 6.62698 12.2381 5.95238C12.2381 5.27778 12.754 4.7619 13.4286 4.7619ZM30.0952 4.7619H43.5873C44.2619 4.7619 44.7778 5.27778 44.7778 5.95238C44.7778 6.62698 44.2619 7.14286 43.5873 7.14286H30.0952C29.4206 7.14286 28.9048 6.62698 28.9048 5.95238C28.9048 5.27778 29.4206 4.7619 30.0952 4.7619ZM1.5238 14.2857C0.849201 14.2857 0.333328 14.8016 0.333328 15.4762V44.8413C0.333328 47.6984 2.63492 50 5.49206 50H45.1746C48.0317 50 50.3333 47.6984 50.3333 44.8413V15.4762C50.3333 14.8016 49.8175 14.2857 49.1429 14.2857H1.5238ZM14.619 24.5636C15.1746 24.5636 15.6509 24.9203 15.77 25.4759L17.7936 33.5713L19.8173 25.4759C19.976 24.841 20.6108 24.4444 21.2457 24.6032C21.8806 24.8016 22.2779 25.4362 22.1192 26.0711L18.9446 38.7695C18.8255 39.2854 18.3492 39.6825 17.7936 39.6825C17.2381 39.6825 16.7617 39.3251 16.6427 38.7695L14.619 30.7144L12.5954 38.8098C12.4763 39.3257 12 39.7221 11.4444 39.7221C10.8889 39.7221 10.4125 39.3654 10.2935 38.8098L7.11889 26.1114C6.96016 25.4765 7.35745 24.841 7.99237 24.6822C8.62729 24.5235 9.26205 24.9208 9.42078 25.5557L11.4444 33.5713L13.4681 25.4759C13.5871 24.96 14.0635 24.5636 14.619 24.5636ZM25.3333 24.6032H30.8889C31.5635 24.6032 32.0794 25.119 32.0794 25.7937C32.0794 26.4683 31.5635 26.9841 30.8889 26.9841H26.5238V30.9524H30.8889C31.5635 30.9524 32.0794 31.4683 32.0794 32.1429C32.0794 32.8175 31.5635 33.3333 30.8889 33.3333H26.5238V37.3016H30.8889C31.5635 37.3016 32.0794 37.8175 32.0794 38.4921C32.0794 39.1667 31.5635 39.6825 30.8889 39.6825H25.3333C24.6587 39.6825 24.1429 39.1667 24.1429 38.4921V25.7937C24.1429 25.119 24.6587 24.6032 25.3333 24.6032ZM35.254 24.6032H38.0317C40.2143 24.6032 42 26.3889 42 28.5714C42 29.4048 41.7219 30.1981 41.2854 30.833C42.6743 31.6664 43.5873 33.1746 43.5873 34.9206C43.5873 37.5397 41.4444 39.6825 38.8254 39.6825H35.254C34.5794 39.6825 34.0635 39.1667 34.0635 38.4921V25.7937C34.0635 25.119 34.5794 24.6032 35.254 24.6032ZM36.4444 26.9841V30.1587H38.0317C38.9048 30.1587 39.619 29.4444 39.619 28.5714C39.619 27.6984 38.9048 26.9841 38.0317 26.9841H36.4444ZM36.4444 32.5397V37.3016H38.8254C40.1349 37.3016 41.2063 36.2302 41.2063 34.9206C41.2063 33.6111 40.1349 32.5397 38.8254 32.5397H36.4444Z" fill="#E1AB3F"/>
</svg>
