<svg width="50" height="50" viewBox="0 0 50 50" fill="none" xmlns="http://www.w3.org/2000/svg">
<path d="M9.61047 0L0 9.65362L15.2618 24.9198L24.8404 15.2983L23.3716 13.823L19.6041 17.6395L18.1354 16.1642L21.9349 12.3797L20.3065 10.7441L17.5607 13.5343L16.092 12.059L18.8697 9.30083L17.2414 7.66517L13.4738 11.4817L12.0051 10.0064L15.8046 6.22194L14.1762 4.58627L11.4304 7.37652L9.96169 5.90122L12.7395 3.14304L9.61047 0ZM43.5185 1.50738C42.2454 1.50738 40.9762 2.0085 40.0064 2.98268L38.1865 4.7787L16.6986 26.3631L3.99106 39.1597C3.78752 39.296 3.63985 39.5005 3.57599 39.737L1.53257 47.4342C1.44077 47.787 1.54454 48.1599 1.79997 48.4165C2.0554 48.673 2.42656 48.7773 2.77778 48.6851L10.4406 46.6325C10.6122 46.5763 10.7679 46.4761 10.8876 46.3438L10.9515 46.3117C10.9994 46.2636 11.0433 46.2075 11.0792 46.1514L45.2427 11.8666V11.8345L45.9132 11.161C46.44 10.6318 47.0307 10.0385 47.0307 10.0385C48.9703 8.08611 48.9703 4.93105 47.0307 2.98268C46.0568 2.0085 44.7917 1.50738 43.5185 1.50738ZM43.5185 3.55997C44.3008 3.55997 45.0431 3.87268 45.5939 4.42591C46.7353 5.57248 46.7353 7.44869 45.5939 8.59525C45.4622 8.72755 45.3544 8.83579 45.2427 8.94804L41.092 4.7787L41.4432 4.42591C41.9979 3.86867 42.7363 3.55997 43.5185 3.55997ZM35.6322 25.914L32.8863 28.6722L32.0243 27.8063L25.1596 34.7017L40.3895 50L50 40.3464L47.8927 38.2296L45.1469 40.9878L43.6782 39.5446L46.4559 36.7543L44.8276 35.1507L41.06 38.9352L39.5913 37.492L43.3908 33.6754L41.7625 32.0718L39.0166 34.83L37.5479 33.3868L40.3257 30.5965L38.6973 28.9929L34.9298 32.7774L33.461 31.3342L37.2605 27.5176L35.6322 25.914ZM5.10856 41.982L8.20562 45.093L3.95913 46.2476L5.10856 41.982Z" fill="#E1AB3F"/>
</svg>
